<svg width="558" height="97" viewBox="0 0 558 97" fill="none" xmlns="http://www.w3.org/2000/svg">
<path d="M40.3418 18.5895C40.3418 23.7963 39.18 27.7336 36.8563 30.4016C34.5326 33.0265 30.7889 34.7693 25.6251 35.6299V36.6626C27.6476 36.9208 29.4979 37.3726 31.1761 38.0181C32.8974 38.6636 34.425 39.5672 35.759 40.7291C37.0499 41.8479 38.1472 43.2034 39.0509 44.7955C39.9545 46.3877 40.6 48.0659 40.9873 49.8302C41.4176 51.7666 41.6327 53.9182 41.6327 56.2849C41.6327 58.7807 41.353 61.1044 40.7936 63.2559C40.2773 65.4075 39.4812 67.3224 38.4054 69.0006C37.2436 70.7649 35.8881 72.228 34.3389 73.3898C32.7898 74.5086 31.0901 75.3477 29.2397 75.9071C27.2603 76.5096 25.1087 76.8108 22.785 76.8108H0V0H22.2041C24.3987 0 26.4427 0.279703 28.3361 0.83911C30.2725 1.35548 31.9722 2.13005 33.4353 3.1628C34.8553 4.23858 36.0602 5.48648 37.0499 6.90652C38.0827 8.32655 38.9218 10.0693 39.5672 12.1348C39.8254 13.1245 40.0191 14.1573 40.1482 15.2331C40.2773 16.3088 40.3418 17.4277 40.3418 18.5895ZM18.3313 14.2003H15.1685V30.1434H18.3313C20.0956 30.1434 21.5371 29.67 22.656 28.7234C23.1723 28.293 23.6026 27.7767 23.9469 27.1742C24.3342 26.5718 24.6569 25.8188 24.9151 24.9151C25.0012 24.4848 25.0657 24.0545 25.1087 23.6242C25.1518 23.1508 25.1733 22.6775 25.1733 22.2041C25.1733 20.2247 24.786 18.568 24.0114 17.234C23.6242 16.6316 23.1508 16.0937 22.5914 15.6203C22.032 15.104 21.408 14.7382 20.7195 14.523C19.902 14.3079 19.1059 14.2003 18.3313 14.2003ZM15.1685 62.6105H19.1059C20.9562 62.6105 22.4838 62.0941 23.6887 61.0613C24.3342 60.545 24.8505 59.921 25.2378 59.1895C25.6251 58.4149 25.9263 57.5543 26.1415 56.6076C26.3566 55.5749 26.4642 54.5206 26.4642 53.4448C26.4642 52.4121 26.3351 51.4008 26.0769 50.4111C25.8618 49.3784 25.5606 48.4962 25.1733 47.7647C24.2696 46.2156 23.0863 45.2043 21.6232 44.731C20.8486 44.4728 20.0095 44.3437 19.1059 44.3437H15.1685V62.6105Z" fill="#F6F2EC"/>
<path d="M111.505 48.5393V53.2512H62.9385C63.2581 54.5421 63.764 55.747 64.4562 56.8658C65.2018 57.9416 66.0272 58.8668 66.9325 59.6413C67.9443 60.5019 69.0093 61.212 70.1276 61.7714C71.2459 62.3308 72.6039 62.7611 74.2014 63.0623C74.8937 63.2344 75.6126 63.3635 76.3582 63.4496C77.1569 63.5356 77.9823 63.5787 78.8344 63.5787C81.3905 63.5787 83.7336 63.2344 85.8637 62.5459C87.9938 61.8574 89.7245 60.8892 91.0558 59.6413C91.3753 59.3401 91.6682 59.0174 91.9345 58.6731C92.2007 58.3289 92.4404 57.9846 92.6534 57.6404H110.946C110.2 60.3083 109.108 62.632 107.671 64.6114C106.233 66.5909 104.635 68.2476 102.878 69.5815C100.854 71.2167 98.5644 72.6152 96.0083 73.7771C93.5054 74.9389 90.7629 75.8426 87.7808 76.4881C86.343 76.7893 84.8519 77.0259 83.3076 77.1981C81.7633 77.3702 80.1923 77.4563 78.5947 77.4563C74.4943 77.4563 70.7667 76.9829 67.4118 76.0362C64.1101 75.0465 61.1546 73.7341 58.5452 72.0989C52.8472 68.5703 48.9332 63.8584 46.8031 57.9631C45.738 55.037 45.2055 51.8957 45.2055 48.5393C45.2055 45.3119 45.7647 42.2137 46.883 39.2445C48.0013 36.2753 49.5722 33.6289 51.5958 31.3052C53.6726 28.9385 56.0956 26.916 58.8647 25.2378C61.6871 23.5596 64.7758 22.2687 68.1307 21.365C71.5388 20.4614 75.0801 20.0095 78.7545 20.0095C82.3224 20.0095 85.8104 20.5044 89.2186 21.4941C92.6268 22.4408 95.6355 23.7748 98.2449 25.496C100.961 27.3033 103.304 29.3688 105.274 31.6925C107.298 34.0162 108.842 36.6411 109.907 39.5672C110.972 42.4073 111.505 45.398 111.505 48.5393ZM63.2581 43.5691H93.8516C92.9995 41.2885 91.5617 39.3306 89.5381 37.6954C87.5678 36.1032 85.2513 34.9844 82.5887 34.3389C81.8964 34.2098 81.2041 34.1023 80.5118 34.0162C79.8196 33.9301 79.1007 33.8871 78.3551 33.8871C75.6392 33.8871 73.0299 34.468 70.527 35.6299C69.6217 36.0602 68.6632 36.6626 67.6514 37.4372C66.6928 38.2118 65.8142 39.18 65.0154 40.3418C64.2699 41.4176 63.6841 42.4934 63.2581 43.5691Z" fill="#F6F2EC"/>
<path d="M115.554 20.655H127.092C127.092 21.1283 127.058 21.5587 126.989 21.9459C126.921 22.2902 126.801 22.7635 126.63 23.366C126.459 24.0114 126.357 24.3987 126.323 24.5278C126.288 24.6569 126.22 24.8075 126.117 24.9796C126.049 25.1087 125.895 25.5391 125.656 26.2706C125.485 26.7439 125.28 27.1742 125.041 27.5615L125.656 28.207C126.203 27.1742 126.733 26.2706 127.246 25.496C127.793 24.7215 128.476 23.9684 129.297 23.2369C130.664 22.032 132.305 21.2574 134.219 20.9132C135.108 20.7411 136.134 20.655 137.296 20.655H139.296L138.783 34.5326H135.553C132.852 34.5326 130.784 35.0705 129.348 36.1463C127.844 37.3081 127.092 38.9003 127.092 40.9227V76.8108H115.554V20.655Z" fill="#F6F2EC"/>
<path d="M142.646 20.655H154.183C154.183 21.1283 154.149 21.5587 154.081 21.9459C154.012 22.2902 153.893 22.7635 153.722 23.366C153.551 24.0114 153.448 24.3987 153.414 24.5278C153.38 24.6569 153.311 24.8075 153.209 24.9796C153.141 25.1087 152.987 25.5391 152.747 26.2706C152.576 26.7439 152.371 27.1742 152.132 27.5615L152.747 28.207C153.294 27.1742 153.824 26.2706 154.337 25.496C154.884 24.7215 155.568 23.9684 156.388 23.2369C157.756 22.032 159.397 21.2574 161.311 20.9132C162.2 20.7411 163.225 20.655 164.388 20.655H166.388L165.875 34.5326H162.644C159.944 34.5326 157.875 35.0705 156.439 36.1463C154.935 37.3081 154.183 38.9003 154.183 40.9227V76.8108H142.646V20.655Z" fill="#F6F2EC"/>
<path d="M184.405 20.655L189.018 50.6048C189.143 51.3363 189.268 52.369 189.392 53.703C189.558 55.037 189.683 56.1773 189.766 57.124C189.849 58.501 189.912 59.6413 189.953 60.545C190.036 61.4486 190.12 62.589 190.203 63.966C190.203 64.5254 190.203 65.0633 190.203 65.5796V67.1288H191.2C191.2 66.0099 191.2 65.1924 191.2 64.676C191.242 64.1596 191.262 63.6432 191.262 63.1268C191.304 62.6105 191.366 61.7498 191.45 60.545C191.45 59.9856 191.491 59.2971 191.574 58.4795C191.657 57.6188 191.74 56.7582 191.824 55.8976C191.907 55.037 191.99 54.3054 192.073 53.703C192.115 53.1866 192.156 52.6703 192.198 52.1539C192.281 51.5945 192.364 51.0781 192.447 50.6048L197.185 20.655H210.9L196.811 96.1749H182.784L187.771 76.8108H180.851L170.378 20.655H184.405Z" fill="#F6F2EC"/>
<path d="M287.629 62.8514C291.173 60.5613 296.542 58.653 302.984 60.7523C303.807 62.7244 304.681 67.8135 301.588 72.3936C298.496 76.9737 293.929 79.391 292.032 80.0272C289.598 81.045 283.227 82.9854 277.214 82.6037C271.201 82.222 267.193 81.2995 265.94 80.886C263.219 79.8682 257.328 76.7829 255.524 72.5844C255.202 72.0436 254.815 71.0578 255.846 71.4394C256.877 71.8211 259.425 72.0436 260.571 72.1073C262.432 72.0755 266.798 71.5158 269.375 69.5311C272.597 67.0501 274.959 66.6685 277.966 66.3821C280.371 66.153 281.903 65.7776 282.368 65.6186C282.941 65.4596 284.795 64.6835 287.629 62.8514Z" fill="#F6F2EC"/>
<path d="M286.519 52.3547C289.731 51.3079 293.212 51.4016 294.465 51.7196C301.337 53.5326 301.803 57.6034 301.803 57.7938C301.804 58.0802 301.588 58.0594 301.266 57.9851C294.652 56.4583 289.455 58.653 287.522 59.7981L285.053 61.2291L282.905 62.4697C282.261 62.8514 280.221 63.672 277.214 63.901C274.208 64.13 272.311 64.7596 271.738 65.0459L269.698 66.0957C269.197 66.382 267.851 67.1454 266.477 67.9088C264.759 68.863 262.826 69.3399 260.034 69.6261C257.801 69.8551 254.193 68.8629 254.021 68.4812C253.592 67.5252 252.84 62.7558 256.706 58.2712C260.571 53.7864 264.83 52.5854 266.477 52.3547C268.517 52.0689 269.376 52.9604 272.167 53.2138C278.004 53.7437 282.905 53.5327 286.519 52.3547Z" fill="#F6F2EC"/>
<path fill-rule="evenodd" clip-rule="evenodd" d="M276.464 13.5234C297.089 13.5235 305.636 22.1122 305.636 32.2622C305.635 42.412 294.403 50.9435 279.403 50.9436C260.778 50.9435 251.714 42.8312 251.714 32.6814C251.339 21.8773 260.724 13.5234 276.464 13.5234ZM268.329 19.9829C265.084 19.983 262.454 22.1771 262.454 24.8837C262.454 27.5904 265.084 29.7845 268.329 29.7845C271.573 29.7845 274.204 27.5904 274.204 24.8837C274.204 22.1771 271.573 19.983 268.329 19.9829Z" fill="#F6F2EC"/>
<path d="M386.779 27.9489C386.779 33.1557 385.617 37.093 383.294 39.761C380.97 42.3859 377.226 44.1286 372.063 44.9893V46.022C374.085 46.2802 375.935 46.732 377.614 47.3775C379.335 48.023 380.862 48.9266 382.196 50.0885C383.487 51.2073 384.585 52.5628 385.488 54.1549C386.392 55.7471 387.037 57.4253 387.425 59.1896C387.855 61.126 388.07 63.2775 388.07 65.6443C388.07 68.1401 387.791 70.4638 387.231 72.6153C386.715 74.7669 385.919 76.6818 384.843 78.36C383.681 80.1243 382.326 81.5873 380.776 82.7492C379.227 83.868 377.528 84.7071 375.677 85.2665C373.698 85.8689 371.546 86.1702 369.223 86.1702H346.438V9.35938H368.642C370.836 9.35938 372.88 9.63908 374.774 10.1985C376.71 10.7149 378.41 11.4894 379.873 12.5222C381.293 13.598 382.498 14.8459 383.487 16.2659C384.52 17.6859 385.359 19.4287 386.005 21.4942C386.263 22.4839 386.457 23.5167 386.586 24.5924C386.715 25.6682 386.779 26.787 386.779 27.9489ZM364.769 23.5597H361.606V39.5028H364.769C366.533 39.5028 367.975 39.0294 369.093 38.0827C369.61 37.6524 370.04 37.136 370.384 36.5336C370.772 35.9312 371.094 35.1781 371.353 34.2745C371.439 33.8442 371.503 33.4138 371.546 32.9835C371.589 32.5102 371.611 32.0368 371.611 31.5635C371.611 29.5841 371.224 27.9274 370.449 26.5934C370.062 25.991 369.588 25.4531 369.029 24.9797C368.47 24.4633 367.846 24.0976 367.157 23.8824C366.339 23.6673 365.543 23.5597 364.769 23.5597ZM361.606 71.9698H365.543C367.394 71.9698 368.921 71.4535 370.126 70.4207C370.772 69.9043 371.288 69.2804 371.675 68.5489C372.063 67.7743 372.364 66.9137 372.579 65.967C372.794 64.9342 372.902 63.88 372.902 62.8042C372.902 61.7714 372.773 60.7602 372.514 59.7705C372.299 58.7377 371.998 57.8556 371.611 57.1241C370.707 55.5749 369.524 54.5637 368.061 54.0904C367.286 53.8322 366.447 53.7031 365.543 53.7031H361.606V71.9698Z" fill="#F6F2EC"/>
<path d="M461.309 57.8986V62.6106H412.307C412.629 63.9015 413.14 65.1064 413.838 66.2252C414.59 67.301 415.423 68.2261 416.337 69.0007C417.358 69.8613 418.432 70.5713 419.56 71.1307C420.689 71.6901 422.059 72.1205 423.671 72.4217C424.369 72.5938 425.095 72.7229 425.847 72.809C426.653 72.895 427.486 72.9381 428.345 72.9381C430.924 72.9381 433.289 72.5938 435.438 71.9053C437.587 71.2168 439.333 70.2486 440.676 69.0007C440.999 68.6995 441.294 68.3767 441.563 68.0325C441.832 67.6882 442.073 67.344 442.288 66.9997H460.745C459.993 69.6677 458.891 71.9914 457.44 73.9708C455.99 75.9502 454.378 77.6069 452.605 78.9409C450.563 80.5761 448.252 81.9746 445.673 83.1365C443.148 84.2983 440.381 85.202 437.372 85.8474C435.921 86.1487 434.417 86.3853 432.859 86.5574C431.301 86.7296 429.716 86.8156 428.104 86.8156C423.966 86.8156 420.205 86.3423 416.82 85.3956C413.489 84.4059 410.507 83.0934 407.874 81.4582C402.125 77.9297 398.176 73.2178 396.027 67.3225C394.952 64.3963 394.415 61.2551 394.415 57.8986C394.415 54.6713 394.979 51.573 396.107 48.6039C397.236 45.6347 398.821 42.9883 400.862 40.6646C402.958 38.2979 405.403 36.2754 408.197 34.5972C411.044 32.919 414.161 31.628 417.546 30.7244C420.984 29.8207 424.557 29.3689 428.265 29.3689C431.865 29.3689 435.384 29.8638 438.823 30.8535C442.262 31.8002 445.297 33.1341 447.93 34.8554C450.67 36.6627 453.034 38.7282 455.022 41.0519C457.064 43.3756 458.622 46.0005 459.697 48.9266C460.772 51.7667 461.309 54.7573 461.309 57.8986ZM412.629 52.9285H443.497C442.638 50.6479 441.187 48.6899 439.145 47.0548C437.157 45.4626 434.82 44.3438 432.133 43.6983C431.435 43.5692 430.736 43.4616 430.038 43.3756C429.339 43.2895 428.614 43.2465 427.862 43.2465C425.122 43.2465 422.489 43.8274 419.963 44.9893C419.05 45.4196 418.083 46.022 417.062 46.7966C416.095 47.5711 415.208 48.5393 414.402 49.7012C413.65 50.777 413.059 51.8527 412.629 52.9285Z" fill="#F6F2EC"/>
<path d="M468.012 71.5826C468.012 69.3449 468.338 67.301 468.989 65.4506C469.641 63.5572 470.665 61.8575 472.062 60.3514C473.458 58.8453 475.18 57.5759 477.229 56.5431C479.323 55.4674 481.79 54.5422 484.63 53.7676C486.073 53.3803 487.609 53.0576 489.238 52.7994C490.867 52.4982 492.59 52.24 494.405 52.0249V47.7648C494.405 47.3345 494.312 46.8611 494.126 46.3447C493.986 45.7853 493.8 45.355 493.567 45.0538C493.288 44.7095 492.985 44.4083 492.66 44.1501C492.334 43.8489 491.892 43.6122 491.333 43.4401C490.774 43.311 490.262 43.2465 489.797 43.2465C489.378 43.2465 488.866 43.311 488.261 43.4401C487.702 43.5692 487.26 43.7629 486.934 44.021C486.189 44.5374 485.677 45.2474 485.398 46.1511C485.212 46.6675 485.119 47.1408 485.119 47.5711V49.0557H469.757V45.2474C469.757 43.3541 470.037 41.5468 470.595 39.8255C471.2 38.1043 472.062 36.5982 473.179 35.3072C475.46 32.7684 478.741 31.0041 483.024 30.0144C484.048 29.7992 485.142 29.6486 486.306 29.5625C487.516 29.4335 488.749 29.3689 490.006 29.3689C496.384 29.3689 501.341 30.7674 504.879 33.5645C508.37 36.3615 510.116 40.2558 510.116 45.2474V86.1702H494.405C494.405 85.7829 494.452 85.3311 494.545 84.8147C494.638 84.2553 494.754 83.7819 494.894 83.3946C495.08 82.9213 495.266 82.4695 495.453 82.0392C495.685 81.5658 495.941 81.071 496.221 80.5546C496.453 80.1673 496.779 79.737 497.198 79.2636L496.36 78.6182C495.616 79.8231 494.847 80.8343 494.056 81.6519C493.311 82.4264 492.497 83.1365 491.612 83.7819C490.774 84.4274 489.843 84.9868 488.819 85.4602C487.842 85.8905 486.725 86.2132 485.468 86.4284C484.909 86.5574 484.327 86.6435 483.722 86.6865C483.164 86.7726 482.582 86.8156 481.977 86.8156C480.44 86.8156 478.928 86.6005 477.438 86.1702C475.995 85.7829 474.622 85.0944 473.318 84.1047C472.155 83.2871 471.177 82.2328 470.386 80.9419C469.594 79.6079 469.013 78.1879 468.64 76.6818C468.407 75.9072 468.245 75.0896 468.151 74.229C468.058 73.3684 468.012 72.4862 468.012 71.5826ZM484.071 69.388C484.071 70.0334 484.141 70.6359 484.281 71.1953C484.467 71.7117 484.676 72.0989 484.909 72.3571C485.514 73.2178 486.329 73.7556 487.353 73.9708C487.912 74.1429 488.447 74.229 488.959 74.229C490.542 74.229 492.357 73.6911 494.405 72.6153V60.6741C493.009 61.1045 491.752 61.5348 490.635 61.9651C489.518 62.3954 488.54 62.9118 487.702 63.5142C486.957 64.0306 486.282 64.59 485.677 65.1924C485.119 65.7949 484.723 66.4618 484.49 67.1934C484.211 67.9679 484.071 68.6995 484.071 69.388Z" fill="#F6F2EC"/>
<path d="M518.129 30.0144H533.407C533.407 30.1865 533.362 30.5523 533.271 31.1117C533.181 31.628 533.068 32.0368 532.932 32.3381C532.751 32.8114 532.57 33.2848 532.389 33.7581C532.208 34.2314 531.936 34.7908 531.574 35.4363C531.438 35.6945 531.302 35.9527 531.166 36.2109C531.031 36.426 530.872 36.6627 530.691 36.9209L531.506 37.5664C532.366 36.3615 533.181 35.3933 533.95 34.6618C534.72 33.8872 535.58 33.1341 536.531 32.4026C537.391 31.7571 538.341 31.1977 539.383 30.7244C540.424 30.251 541.442 29.9068 542.438 29.6916C542.936 29.6056 543.434 29.541 543.932 29.498C544.475 29.4119 545.018 29.3689 545.561 29.3689C546.919 29.3689 548.255 29.5841 549.568 30.0144C550.926 30.4017 552.103 31.0041 553.099 31.8217C555.09 33.5429 556.403 35.9527 557.037 39.0509C557.173 39.8255 557.286 40.6431 557.376 41.5037C557.467 42.3643 557.512 43.268 557.512 44.2147V65.1924V86.1702H542.234V46.7966C542.234 46.2802 542.189 45.8929 542.099 45.6347C542.008 45.3335 541.827 44.9462 541.555 44.4729C541.374 44.2147 541.103 43.978 540.741 43.7629C540.378 43.5477 540.061 43.4186 539.79 43.3756C539.337 43.2895 538.93 43.2465 538.568 43.2465C538.206 43.2465 537.866 43.2895 537.549 43.3756C537.232 43.4186 536.893 43.4832 536.531 43.5692C536.123 43.6553 535.784 43.7844 535.512 43.9565C535.241 44.0856 534.878 44.2577 534.426 44.4729C534.245 44.5589 534.064 44.6665 533.883 44.7956C533.747 44.8817 533.588 44.9893 533.407 45.1183V86.1702H518.129V30.0144Z" fill="#F6F2EC"/>
</svg>
